<svg xmlns="http://www.w3.org/2000/svg" width="140.014" height="46.115" viewBox="0 0 140.014 46.115">
    <path d="M289.088,131.643H291v15.841h-1.917Zm8.105,0h2.425l-6.373,7.435,6.327,8.405h-2.425L291.1,139.1Z"
        transform="translate(-248.927 -108.916)" fill="#222"></path>
    <path
        d="M338.919,150.077a8.664,8.664,0,0,1,4.826-1.547,3.124,3.124,0,0,1,3.187,1.8,6.822,6.822,0,0,1,.254,2.54l-.092,3.787c-.046,1.871.069,2.355.924,2.817l-.924,1.293a2.361,2.361,0,0,1-1.57-1.686,4.3,4.3,0,0,1-3.325,1.547c-2.84,0-3.695-1.732-3.695-3.279,0-2.609,2.24-4.133,6.1-4.133.485,0,.808.023.808.023v-.808c0-1.016-.046-1.432-.37-1.8a1.888,1.888,0,0,0-1.547-.624,6.365,6.365,0,0,0-3.672,1.363Zm6.443,4.411c-.3-.023-.577-.046-.9-.046-2.909,0-3.949.993-3.949,2.748,0,1.362.67,2.1,1.986,2.1a3.154,3.154,0,0,0,2.794-1.8Z"
        transform="translate(-286.517 -121.761)" fill="#222"></path>
    <path
        d="M390.227,148.867l1.8-.485a4.153,4.153,0,0,1,.369,1.87,4.167,4.167,0,0,1,3.233-1.917,2.166,2.166,0,0,1,.624.116l-.739,1.963a1.537,1.537,0,0,0-.508-.092,2.741,2.741,0,0,0-1.917.831,2.071,2.071,0,0,0-.67,1.824v7.2h-1.8v-8.867a5.811,5.811,0,0,0-.393-2.448"
        transform="translate(-325.864 -121.614)" fill="#222"></path>
    <path
        d="M428.012,139.213l-.554,1.362h-2.4v7.413c0,1.27.346,1.709,1.478,1.709a2.291,2.291,0,0,0,1.132-.231l.254,1.155a4.261,4.261,0,0,1-2.032.462,3.348,3.348,0,0,1-1.5-.323c-.808-.393-1.108-1.131-1.108-2.286v-7.9h-1.5v-1.362h1.5c0-1.108.185-2.909.185-2.909l1.894-.416a31,31,0,0,0-.231,3.325Z"
        transform="translate(-349.864 -112.145)" fill="#222"></path>
    <path
        d="M451.691,148.923l1.847-.393,2.678,7.921c.324.947.554,1.963.554,1.963h.046a16.2,16.2,0,0,1,.554-1.94L460,148.83h1.917L457.6,160.445h-1.778Z"
        transform="translate(-372.619 -121.761)" fill="#222"></path>
    <path
        d="M509.008,158l.693,1.155a5.745,5.745,0,0,1-3.88,1.432c-3.187,0-5.1-2.309-5.1-6.119a6.141,6.141,0,0,1,1.386-4.341,4.516,4.516,0,0,1,6.558-.346c.993,1.016,1.27,2.1,1.316,4.849v.254H502.8v.277a4.588,4.588,0,0,0,.531,2.517,3.252,3.252,0,0,0,2.863,1.409A3.96,3.96,0,0,0,509.008,158m-6.212-4.48h5.265a4.936,4.936,0,0,0-.531-2.563,2.447,2.447,0,0,0-2.078-1.016c-1.639,0-2.563,1.2-2.656,3.579"
        transform="translate(-409.914 -121.761)" fill="#222"></path>
    <path
        d="M552.345,148.867l1.8-.485a4.155,4.155,0,0,1,.37,1.87,4.167,4.167,0,0,1,3.233-1.917,2.167,2.167,0,0,1,.624.116l-.739,1.963a1.54,1.54,0,0,0-.508-.092,2.741,2.741,0,0,0-1.917.831,2.071,2.071,0,0,0-.67,1.824v7.2h-1.8v-8.867a5.811,5.811,0,0,0-.393-2.448"
        transform="translate(-449.186 -121.614)" fill="#222"></path>
    <path
        d="M585.83,127.647l1.8-.346a10.115,10.115,0,0,1,.3,2.725v14.155h-1.8V130a7.771,7.771,0,0,0-.3-2.355m6.558,5.034h2.263l-4.526,4.988,5.565,6.512h-2.4L588,137.669Z"
        transform="translate(-474.658 -105.613)" fill="#222"></path>
    <path
        d="M640.826,158l.693,1.155a5.745,5.745,0,0,1-3.88,1.432c-3.187,0-5.1-2.309-5.1-6.119a6.141,6.141,0,0,1,1.386-4.341,4.516,4.516,0,0,1,6.558-.346c.993,1.016,1.27,2.1,1.316,4.849v.254h-7.182v.277a4.588,4.588,0,0,0,.531,2.517,3.252,3.252,0,0,0,2.863,1.409A3.959,3.959,0,0,0,640.826,158m-6.212-4.48h5.265a4.932,4.932,0,0,0-.531-2.563,2.446,2.446,0,0,0-2.078-1.016c-1.64,0-2.563,1.2-2.656,3.579"
        transform="translate(-510.188 -121.761)" fill="#222"></path>
    <path
        d="M686.537,139.213l-.554,1.362h-2.4v7.413c0,1.27.347,1.709,1.478,1.709a2.292,2.292,0,0,0,1.132-.231l.254,1.155a4.261,4.261,0,0,1-2.032.462,3.347,3.347,0,0,1-1.5-.323c-.808-.393-1.108-1.131-1.108-2.286v-7.9h-1.5v-1.362h1.5c0-1.108.185-2.909.185-2.909l1.894-.416a30.991,30.991,0,0,0-.231,3.325Z"
        transform="translate(-546.523 -112.145)" fill="#222"></path>
    <path
        d="M150.431,36.669H123.694a2.431,2.431,0,0,0-2.43,2.431V55.5c2.1-1.6,4.725-3.829,9.462-2.66,4.083,1.007,4.973,4.154,11.43,7.729,3.953,2.189,7.662.5,10.705-1.268V39.1a2.431,2.431,0,0,0-2.431-2.431"
        transform="translate(-121.264 -36.669)" fill="#1a833b"></path>
    <path
        d="M144.245,141.048a7.677,7.677,0,0,1-3.386-1.283c-2.263-1.4-4.432-3.68-9.045-6.075-3.675-1.786-7.26-.424-10.545,1.448l0,0v18.383a2.431,2.431,0,0,0,2.43,2.43h26.736a2.431,2.431,0,0,0,2.431-2.43V138.535c-2.854,1.636-5.594,2.965-8.618,2.513"
        transform="translate(-121.265 -109.837)" fill="#00509c"></path>
    <path
        d="M142.156,110.918c-6.458-3.575-7.348-6.722-11.43-7.729-4.737-1.169-7.364,1.063-9.462,2.66l0,3.308v3.166c3.285-1.872,6.919-3.33,10.545-1.448,4.614,2.395,6.783,4.678,9.045,6.075a8.661,8.661,0,0,0,3.386,1.283c3.025.452,5.765-.877,8.618-2.513l-.007-2.925.007-3.145c-3.043,1.768-6.752,3.457-10.705,1.268"
        transform="translate(-121.264 -87.023)" fill="#fff"></path>
</svg>